<?xml version="1.0" encoding="utf-8"?>
<!-- Generator: Adobe Illustrator 27.9.0, SVG Export Plug-In . SVG Version: 6.00 Build 0)  -->
<svg version="1.1" id="Layer_1" xmlns="http://www.w3.org/2000/svg" xmlns:xlink="http://www.w3.org/1999/xlink" x="0px" y="0px"
	 viewBox="0 0 93.6 91.4" style="enable-background:new 0 0 93.6 91.4;" xml:space="preserve">
<style type="text/css">
	.st0{fill:#FFFFFF;stroke:#231F20;stroke-width:0.3921;stroke-miterlimit:10;}
	.st1{fill:none;stroke:#231F20;stroke-width:0.4647;stroke-miterlimit:10;}
	.st2{fill:#39173C;}
	.st3{fill:none;stroke:#231F20;stroke-width:1.1852;stroke-miterlimit:10;}
	.st4{fill:none;stroke:#231F20;stroke-width:3;stroke-miterlimit:10;}
	.st5{fill:#39173C;stroke:#231F20;stroke-width:2;stroke-miterlimit:10;}
	.st6{fill:#39173C;stroke:#39173C;stroke-width:4;stroke-miterlimit:10;}
	.st7{fill:#39173C;stroke:#39173C;stroke-width:9;stroke-miterlimit:10;}
	.st8{fill:none;stroke:#39173C;stroke-width:7;stroke-miterlimit:10;}
	.st9{fill:#BFE869;}
	.st10{fill:#BFE869;stroke:#BFE869;stroke-width:4;stroke-miterlimit:10;}
	.st11{fill:#39173C;stroke:#BFE869;stroke-width:9;stroke-miterlimit:10;}
	.st12{fill:none;stroke:#BFE869;stroke-width:7;stroke-miterlimit:10;}
	.st13{fill:#49CCBC;}
	.st14{fill:#FEAF39;}
	.st15{fill:#BFE869;stroke:#BFE869;stroke-width:0.5;stroke-miterlimit:10;}
	.st16{fill:#FFFFFF;}
	.st17{fill:#231F20;}
	.st18{fill:none;}
	.st19{fill:#BFE869;stroke:#BFE869;stroke-width:0.2706;stroke-miterlimit:10;}
	.st20{fill:#BFE869;stroke:#BFE869;stroke-width:0.75;stroke-miterlimit:10;}
	.st21{fill:#BFE869;stroke:#BFE869;stroke-miterlimit:10;}
	.st22{fill:#BFE869;stroke:#BFE869;stroke-width:0.5603;stroke-miterlimit:10;}
</style>
<g id="b8I2ST_00000143578353290977102310000011170565821417434504_">
	<g>
		<g>
			<g>
				<path class="st2" d="M46.7,83.8c-4.9,0-9.9,0-14.8,0c-3.8,0-7.3-0.8-10.6-2.6c-3.3-1.8-5.9-4.3-7.9-7.6
					c-1.6-2.6-2.5-5.3-2.9-8.3c-0.1-0.9-0.2-1.8-0.2-2.6c0-10.2,0-20.5,0-30.7c0-4.7,1.4-8.9,4.2-12.7c2.7-3.6,6.2-6.1,10.5-7.6
					c2.2-0.7,4.4-1,6.7-1c10.1,0,20.3,0,30.4,0c4.5,0,8.7,1.3,12.4,4c4.2,3,6.9,7,8.2,11.9c0.5,1.7,0.7,3.5,0.7,5.3
					c0,10.3,0,20.6,0,30.9c0,5-1.7,9.5-4.9,13.4c-2.9,3.5-6.6,5.8-11,7c-1.7,0.4-3.5,0.7-5.2,0.7C57,83.8,51.9,83.8,46.7,83.8z
					 M46.8,77.2c5.1,0,10.1,0,15.2,0c1.4,0,2.8-0.2,4.2-0.6c6.2-1.8,10.6-7.6,10.6-14c0-10.2,0-20.4,0-30.6c0-1-0.1-2.1-0.3-3.1
					c-0.6-2.8-1.9-5.2-4-7.3c-2.8-2.8-6.3-4.3-10.2-4.3c-10.1-0.1-20.1,0-30.2,0c-1.4,0-2.7,0.1-4,0.4c-4.1,1-7.2,3.5-9.3,7.1
					c-1.3,2.3-1.9,4.7-1.9,7.4c0,9.9,0,19.8,0,29.6c0,1.4,0.1,2.9,0.5,4.3c0.8,3.2,2.5,5.8,5,7.8c2.8,2.3,6.1,3.3,9.7,3.3
					C36.9,77.2,41.9,77.2,46.8,77.2z"/>
				<path class="st2" d="M28.1,47.2C28,36.8,36.5,28.4,46.9,28.5c10.3,0.1,18.5,8.4,18.7,18.5c0.1,10.5-8.5,19.1-19,19
					C36.4,65.9,28,57.5,28.1,47.2z M34.6,47.2c0,6.7,5.4,12.2,12,12.2C53.4,59.5,58.8,54,59,47.6c0.2-7-5.6-12.5-12-12.6
					C40.2,34.9,34.6,40.5,34.6,47.2z"/>
				<path class="st2" d="M66.3,32.1c-2.5,0-4.4-2-4.4-4.6c0.1-2.3,1.9-4.2,4.4-4.1c2.2,0,4.4,1.8,4.3,4.6
					C70.6,30.2,68.8,32,66.3,32.1z"/>
			</g>
		</g>
	</g>
</g>
</svg>
