<?xml version="1.0" encoding="utf-8"?>
<!-- Generator: Adobe Illustrator 27.9.0, SVG Export Plug-In . SVG Version: 6.00 Build 0)  -->
<svg version="1.1" id="Layer_1" xmlns="http://www.w3.org/2000/svg" xmlns:xlink="http://www.w3.org/1999/xlink" x="0px" y="0px"
	 viewBox="0 0 93.6 91.4" style="enable-background:new 0 0 93.6 91.4;" xml:space="preserve">
<style type="text/css">
	.st0{fill:#FFFFFF;stroke:#231F20;stroke-width:0.3921;stroke-miterlimit:10;}
	.st1{fill:none;stroke:#231F20;stroke-width:0.4647;stroke-miterlimit:10;}
	.st2{fill:#39173C;}
	.st3{fill:none;stroke:#231F20;stroke-width:1.1852;stroke-miterlimit:10;}
	.st4{fill:none;stroke:#231F20;stroke-width:3;stroke-miterlimit:10;}
	.st5{fill:#39173C;stroke:#231F20;stroke-width:2;stroke-miterlimit:10;}
	.st6{fill:#39173C;stroke:#39173C;stroke-width:4;stroke-miterlimit:10;}
	.st7{fill:#39173C;stroke:#39173C;stroke-width:9;stroke-miterlimit:10;}
	.st8{fill:none;stroke:#39173C;stroke-width:7;stroke-miterlimit:10;}
	.st9{fill:#BFE869;}
	.st10{fill:#BFE869;stroke:#BFE869;stroke-width:4;stroke-miterlimit:10;}
	.st11{fill:#39173C;stroke:#BFE869;stroke-width:9;stroke-miterlimit:10;}
	.st12{fill:none;stroke:#BFE869;stroke-width:7;stroke-miterlimit:10;}
	.st13{fill:#49CCBC;}
	.st14{fill:#FEAF39;}
	.st15{fill:#BFE869;stroke:#BFE869;stroke-width:0.5;stroke-miterlimit:10;}
	.st16{fill:#FFFFFF;}
	.st17{fill:#231F20;}
	.st18{fill:none;}
	.st19{fill:#BFE869;stroke:#BFE869;stroke-width:0.2706;stroke-miterlimit:10;}
	.st20{fill:#BFE869;stroke:#BFE869;stroke-width:0.75;stroke-miterlimit:10;}
	.st21{fill:#BFE869;stroke:#BFE869;stroke-miterlimit:10;}
	.st22{fill:#BFE869;stroke:#BFE869;stroke-width:0.5603;stroke-miterlimit:10;}
</style>
<g id="u6LN2D_00000091699407539313518490000010907670695492117410_">
	<g>
		<g>
			<path class="st2" d="M81.4,47c0,19.1-15.5,34.6-34.6,34.6c-19.1,0-34.6-15.5-34.5-34.6c0-19,15.5-34.5,34.6-34.5
				C65.9,12.4,81.4,27.9,81.4,47z M48.4,67.7c0-0.2,0-0.4,0-0.7c0-4.6,0-9.3,0-13.9c0-0.8,0.1-1.6,0.4-2.3c1-3,3.8-3.8,6.2-3.4
				c2,0.3,3.3,1.4,3.9,3.4c0.2,0.6,0.2,1.3,0.2,2c0,4.7,0,9.5,0,14.2c0,0.2,0,0.4,0,0.6c2.8,0,5.6,0,8.4,0c0-0.3,0-0.5,0-0.7
				c0-5.6,0-11.1,0-16.7c0-1.3-0.2-2.5-0.6-3.7c-0.6-1.6-1.3-3.1-2.6-4.3c-5-4.4-12.4-3.1-16.1,1.4c-0.1,0.1-0.1,0.2-0.1,0.3
				c-0.1,0-0.1-0.1-0.2-0.1c0-1.2,0-2.5,0-3.7c-2.6,0-5.2,0-7.8,0c0,9.2,0,18.3,0,27.5C42.8,67.7,45.6,67.7,48.4,67.7z M26.8,40.1
				c0,9.2,0,18.3,0,27.5c2.8,0,5.6,0,8.4,0c0-9.2,0-18.3,0-27.5C32.4,40.1,29.6,40.1,26.8,40.1z M35.9,31.1c0-2.7-2.2-4.9-4.9-4.9
				c-2.7,0-4.9,2.2-4.9,4.9c0,2.7,2.2,4.9,4.9,4.9C33.7,36,35.9,33.8,35.9,31.1z"/>
		</g>
	</g>
</g>
</svg>
