<?xml version="1.0" encoding="utf-8"?>
<!-- Generator: Adobe Illustrator 27.9.0, SVG Export Plug-In . SVG Version: 6.00 Build 0)  -->
<svg version="1.1" id="Layer_1" xmlns="http://www.w3.org/2000/svg" xmlns:xlink="http://www.w3.org/1999/xlink" x="0px" y="0px"
	 viewBox="0 0 93.6 91.4" style="enable-background:new 0 0 93.6 91.4;" xml:space="preserve">
<style type="text/css">
	.st0{fill:#FFFFFF;stroke:#231F20;stroke-width:0.3921;stroke-miterlimit:10;}
	.st1{fill:none;stroke:#231F20;stroke-width:0.4647;stroke-miterlimit:10;}
	.st2{fill:#39173C;}
	.st3{fill:none;stroke:#231F20;stroke-width:1.1852;stroke-miterlimit:10;}
	.st4{fill:none;stroke:#231F20;stroke-width:3;stroke-miterlimit:10;}
	.st5{fill:#39173C;stroke:#231F20;stroke-width:2;stroke-miterlimit:10;}
	.st6{fill:#39173C;stroke:#39173C;stroke-width:4;stroke-miterlimit:10;}
	.st7{fill:#39173C;stroke:#39173C;stroke-width:9;stroke-miterlimit:10;}
	.st8{fill:none;stroke:#39173C;stroke-width:7;stroke-miterlimit:10;}
	.st9{fill:#BFE869;}
	.st10{fill:#BFE869;stroke:#BFE869;stroke-width:4;stroke-miterlimit:10;}
	.st11{fill:#39173C;stroke:#BFE869;stroke-width:9;stroke-miterlimit:10;}
	.st12{fill:none;stroke:#BFE869;stroke-width:7;stroke-miterlimit:10;}
	.st13{fill:#49CCBC;}
	.st14{fill:#FEAF39;}
	.st15{fill:#BFE869;stroke:#BFE869;stroke-width:0.5;stroke-miterlimit:10;}
	.st16{fill:#FFFFFF;}
	.st17{fill:#231F20;}
	.st18{fill:none;}
	.st19{fill:#BFE869;stroke:#BFE869;stroke-width:0.2706;stroke-miterlimit:10;}
	.st20{fill:#BFE869;stroke:#BFE869;stroke-width:0.75;stroke-miterlimit:10;}
	.st21{fill:#BFE869;stroke:#BFE869;stroke-miterlimit:10;}
	.st22{fill:#BFE869;stroke:#BFE869;stroke-width:0.5603;stroke-miterlimit:10;}
</style>
<path class="st2" d="M47,83.9c-5.5-0.1-10.1-1.1-14.5-3c-8-3.5-14-9.2-18.1-16.8c-2-3.7-3.3-7.7-3.9-11.9c-0.4-3.2-0.5-6.4,0-9.6
	c0.6-4.8,2.1-9.3,4.6-13.4c4.8-8.3,11.8-13.9,20.9-16.9c4.5-1.5,9.1-2,13.8-1.6c6.8,0.6,13,2.9,18.5,6.9c4.7,3.4,8.3,7.6,11.1,12.7
	c2,3.8,3.3,7.8,3.9,12c1.1,8.1-0.4,15.7-4.4,22.8C74.3,72.7,68,78.2,59.8,81.4c-3,1.2-6,1.9-9.2,2.2C49.2,83.8,47.7,83.9,47,83.9z
	 M38,52.5c-0.2-0.1-0.4-0.3-0.5-0.4c-2.3-1.6-4.2-3.5-5.5-5.9c-2.3-4.1-2.9-8.5-1.5-13.1c1.4-4.3,4.1-7.6,8-9.9
	c3.8-2.2,8-2.8,12.3-1.7c3.2,0.8,6,2.5,8.2,4.9c4.2,4.6,5.8,9.9,4.2,16c-1.1,4.2-3.7,7.4-7.2,9.8c-0.1,0.1-0.2,0.2-0.4,0.3
	c7.7,2.7,13.4,7.6,17.2,14.8c0.1-0.1,0.2-0.2,0.3-0.3c3.8-5.1,5.9-10.7,6.4-17c0.4-4.2-0.1-8.3-1.2-12.4c-1.4-4.8-3.8-9.2-7.3-12.8
	c-6.1-6.5-13.6-9.9-22.5-10.3c-4.4-0.2-8.6,0.4-12.8,1.9c-6.8,2.4-12.2,6.7-16.2,12.7c-3,4.6-4.7,9.7-5.2,15.2
	c-0.4,4.3,0,8.5,1.3,12.7c1.1,3.7,2.8,7.1,5.1,10.1c0.1,0.1,0.2,0.2,0.3,0.3C24.6,60.1,30.4,55.2,38,52.5z M47,80
	c4.7-0.1,9-1,13-2.7c3.5-1.5,6.7-3.6,9.5-6.3c0.2-0.2,0.3-0.4,0.1-0.7c-0.5-1-1-2.1-1.6-3.1c-2.6-4.4-6.1-7.7-10.7-9.8
	c-5.9-2.7-12-3.1-18.2-1.2c-7.3,2.3-12.4,7.1-15.4,14.1c-0.1,0.3-0.1,0.4,0.1,0.6c2,1.9,4.2,3.5,6.5,4.9C35.8,78.7,41.4,80,47,80z
	 M46.8,51.2c0.7-0.1,1.5-0.1,2.2-0.2c3.5-0.5,6.4-2.2,8.5-5c2.3-3.2,3-6.8,2.2-10.7c-0.8-4.2-3.3-7.3-7.2-9.1c-2.5-1.1-5-1.4-7.7-1
	c-3.6,0.5-6.5,2.2-8.6,5.1c-2.3,3.2-2.9,6.9-2.1,10.8c0.5,2.5,1.7,4.7,3.6,6.5C40.1,50,43.3,51.1,46.8,51.2z"/>
</svg>
