<?xml version="1.0" encoding="utf-8"?>
<!-- Generator: Adobe Illustrator 27.9.0, SVG Export Plug-In . SVG Version: 6.00 Build 0)  -->
<svg version="1.1" id="Layer_1" xmlns="http://www.w3.org/2000/svg" xmlns:xlink="http://www.w3.org/1999/xlink" x="0px" y="0px"
	 viewBox="0 0 538.1 212.4" style="enable-background:new 0 0 538.1 212.4;" xml:space="preserve">
<style type="text/css">
	.st0{fill:#FFFFFF;stroke:#231F20;stroke-width:0.3921;stroke-miterlimit:10;}
	.st1{fill:none;stroke:#231F20;stroke-width:0.4647;stroke-miterlimit:10;}
	.st2{fill:#39173C;}
	.st3{fill:none;stroke:#231F20;stroke-width:1.1852;stroke-miterlimit:10;}
	.st4{fill:none;stroke:#231F20;stroke-width:3;stroke-miterlimit:10;}
	.st5{fill:#39173C;stroke:#231F20;stroke-width:2;stroke-miterlimit:10;}
	.st6{fill:#39173C;stroke:#39173C;stroke-width:4;stroke-miterlimit:10;}
	.st7{fill:none;stroke:#39173C;stroke-width:9;stroke-miterlimit:10;}
	.st8{fill:none;stroke:#39173C;stroke-width:7;stroke-miterlimit:10;}
	.st9{fill:#BFE869;}
	.st10{fill:#BFE869;stroke:#BFE869;stroke-width:4;stroke-miterlimit:10;}
	.st11{fill:none;stroke:#BFE869;stroke-width:9;stroke-miterlimit:10;}
	.st12{fill:none;stroke:#BFE869;stroke-width:7;stroke-miterlimit:10;}
	.st13{fill:#49CCBC;}
	.st14{fill:none;}
	.st15{fill:#FEAF39;}
	.st16{fill:#BFE869;stroke:#BFE869;stroke-width:0.5;stroke-miterlimit:10;}
	.st17{fill:#FFFFFF;}
	.st18{fill:#231F20;}
	.st19{fill:#BFE869;stroke:#BFE869;stroke-width:0.2706;stroke-miterlimit:10;}
	.st20{fill:#BFE869;stroke:#BFE869;stroke-width:0.75;stroke-miterlimit:10;}
	.st21{fill:#BFE869;stroke:#BFE869;stroke-miterlimit:10;}
	.st22{fill:#BFE869;stroke:#BFE869;stroke-width:0.5603;stroke-miterlimit:10;}
</style>
<g>
	<path class="st2" d="M30.9,78.2H59c17,0,28.3,11,28.3,26.6c0,12.8-6.8,22.6-19,25.6l21.4,33.2H72.6l-20.3-32.2h-6.7v32.2H31
		L30.9,78.2L30.9,78.2z M72.3,104.8c0-8.4-5.9-12.7-15.3-12.7H45.4v25.4H57C66.5,117.5,72.3,113.2,72.3,104.8z"/>
	<path class="st2" d="M154.6,134.5c0,1.1,0,3.3-0.1,5.5h-43.2c1.1,5.1,7.1,11.7,16.2,11.7c10.1,0,15.9-5.9,15.9-5.9l7.3,11
		c0,0-9.2,8.3-23.2,8.3c-17.6,0-31.1-13.4-31.1-30.4s12.3-30.4,29-30.4C141.3,104.3,154.6,116.7,154.6,134.5z M140,129.4
		c-0.2-5-4.9-11.7-14.5-11.7c-9.4,0-13.7,6.6-14.2,11.7H140z"/>
	<path class="st2" d="M206.8,144.4l9.6,9.8c0,0-8.3,11-23.9,11c-17.3,0-31.1-13.4-31.1-30.4c0-17.1,13.8-30.4,31.1-30.4
		c15.5,0,23.7,10.7,23.7,10.7l-10.1,9c0,0-4.8-6.1-13.5-6.1c-9.9,0-16.2,7.7-16.2,16.7s6.3,16.7,16.2,16.7
		C202.4,151.4,206.8,144.4,206.8,144.4z"/>
	<path class="st2" d="M235.6,77.5c5.4,0,9.6,4.3,9.6,9.6c0,5.4-4.3,9.6-9.6,9.6c-5.4,0-9.6-4.3-9.6-9.6
		C226,81.8,230.3,77.5,235.6,77.5z M228.3,105.8h14.6v57.8h-14.6V105.8z"/>
	<path class="st2" d="M273.5,105.8v7.6c0,0,5.5-9,17.4-9c15,0,28.2,12.6,28.2,30.4s-13.2,30.4-28.2,30.4c-9.2,0-14.4-5-16.4-7.4v34
		h-14.6v-85.9L273.5,105.8L273.5,105.8z M274.6,143.4c0,0,4.1,8.1,13.8,8.1c9.9,0,15.9-7.2,15.9-16.7s-6-16.7-15.9-16.7
		c-9.6,0-13.8,8.1-13.8,8.1V143.4z"/>
	<path class="st2" d="M384.1,134.5c0,1.1,0,3.3-0.1,5.5h-43.2c1.1,5.1,7.1,11.7,16.2,11.7c10.1,0,15.9-5.9,15.9-5.9l7.3,11
		c0,0-9.2,8.3-23.2,8.3c-17.6,0-31.1-13.4-31.1-30.4s12.3-30.4,29-30.4C370.8,104.3,384.1,116.7,384.1,134.5z M369.5,129.4
		c-0.2-5-4.9-11.7-14.5-11.7c-9.4,0-13.7,6.6-14.2,11.7H369.5z"/>
	<path class="st2" d="M398.3,78.2h20.6c17.6,0,27.7,10.1,27.7,24.2c0,18.4-16.1,23.2-22.1,23.8l24.4,37.5h-7.7l-23.9-37.1h-12.7
		v37.1h-6.3V78.2z M419.3,120.4c12.8,0,20.7-6.8,20.7-18.1s-8.1-18.1-20.7-18.1h-14.7v36.1h14.7V120.4z"/>
	<path class="st2" d="M488.8,124.7l-25.7,38.9h-7.4l29.5-44.1l-27.6-41.4h7.7l23.7,36.2l23.8-36.2h7.4l-27.6,41.4l29.5,44.1h-7.7
		L488.8,124.7z"/>
</g>
</svg>
