<?xml version="1.0" encoding="utf-8"?>
<!-- Generator: Adobe Illustrator 27.9.0, SVG Export Plug-In . SVG Version: 6.00 Build 0)  -->
<svg version="1.1" id="Layer_1" xmlns="http://www.w3.org/2000/svg" xmlns:xlink="http://www.w3.org/1999/xlink" x="0px" y="0px"
	 viewBox="0 0 93.6 91.4" style="enable-background:new 0 0 93.6 91.4;" xml:space="preserve">
<style type="text/css">
	.st0{fill:#FFFFFF;stroke:#231F20;stroke-width:0.3921;stroke-miterlimit:10;}
	.st1{fill:none;stroke:#231F20;stroke-width:0.4647;stroke-miterlimit:10;}
	.st2{fill:#39173C;}
	.st3{fill:none;stroke:#231F20;stroke-width:1.1852;stroke-miterlimit:10;}
	.st4{fill:none;stroke:#231F20;stroke-width:3;stroke-miterlimit:10;}
	.st5{fill:#39173C;stroke:#231F20;stroke-width:2;stroke-miterlimit:10;}
	.st6{fill:#39173C;stroke:#39173C;stroke-width:4;stroke-miterlimit:10;}
	.st7{fill:#39173C;stroke:#39173C;stroke-width:9;stroke-miterlimit:10;}
	.st8{fill:none;stroke:#39173C;stroke-width:7;stroke-miterlimit:10;}
	.st9{fill:#BFE869;}
	.st10{fill:#BFE869;stroke:#BFE869;stroke-width:4;stroke-miterlimit:10;}
	.st11{fill:#39173C;stroke:#BFE869;stroke-width:9;stroke-miterlimit:10;}
	.st12{fill:none;stroke:#BFE869;stroke-width:7;stroke-miterlimit:10;}
	.st13{fill:#49CCBC;}
	.st14{fill:#FEAF39;}
	.st15{fill:#BFE869;stroke:#BFE869;stroke-width:0.5;stroke-miterlimit:10;}
	.st16{fill:#FFFFFF;}
	.st17{fill:#231F20;}
	.st18{fill:none;}
	.st19{fill:#BFE869;stroke:#BFE869;stroke-width:0.2706;stroke-miterlimit:10;}
	.st20{fill:#BFE869;stroke:#BFE869;stroke-width:0.75;stroke-miterlimit:10;}
	.st21{fill:#BFE869;stroke:#BFE869;stroke-miterlimit:10;}
	.st22{fill:#BFE869;stroke:#BFE869;stroke-width:0.5603;stroke-miterlimit:10;}
</style>
<g id="zwj8OS_00000178174881944032240050000017486903784860265387_">
	<g>
		<g>
			<path class="st2" d="M48.3,32.2c0.6-0.8,1.2-1.5,1.7-2.3c1.8-2.3,3.8-4.4,6.2-6c2.5-1.7,5.2-2.6,8.3-2.4c2.8,0.2,5.2,1.2,7.5,2.7
				c3,2,5.2,4.7,7.1,7.8c2.5,4.1,4.1,8.6,5.1,13.3c0.7,3.6,1.1,7.2,1,10.9c-0.1,3.1-0.6,6.2-1.8,9.1c-1,2.4-2.6,4.5-4.9,6
				c-1.6,1-3.4,1.5-5.3,1.6c-2.4,0.2-4.7-0.1-6.9-1.2c-1.7-0.8-3.2-2.1-4.5-3.4c-2.2-2.3-4-4.9-5.6-7.6c-2.5-4.1-4.8-8.3-7.3-12.4
				c-0.5-0.8-0.9-1.6-1.4-2.5c-0.5,0.9-1,1.6-1.4,2.4c-2,3.4-3.9,6.9-5.9,10.3c-1.8,3.1-3.8,6-6.1,8.7c-1.1,1.3-2.3,2.4-3.7,3.4
				c-1.9,1.3-4,2-6.3,2.1c-2.3,0.1-4.6-0.2-6.8-1.2c-2.5-1.2-4.2-3.1-5.5-5.4c-1.2-2.2-1.8-4.5-2.1-6.9c-0.4-3.1-0.3-6.2,0.1-9.3
				c0.5-4.4,1.5-8.6,3.3-12.7c1.6-3.8,3.7-7.2,6.5-10.1c2.3-2.3,4.9-4.2,8.2-5c4.1-1,8-0.4,11.7,1.8c2.4,1.4,4.4,3.3,6.3,5.4
				C46.6,30.1,47.4,31.1,48.3,32.2z M77.7,55.2c-0.1-4.6-0.6-8.3-1.5-12c-0.9-3.3-2.1-6.4-4-9.2c-1.4-2-3-3.8-5.3-4.9
				c-2.1-1-4.3-1.3-6.5-0.4c-1.4,0.6-2.6,1.5-3.7,2.6c-1.8,1.8-3.2,3.9-4.6,6c-0.2,0.2-0.2,0.4,0,0.6c1,1.5,2,3,3,4.5
				c3,4.9,6,9.7,9,14.6c1.1,1.8,2.3,3.6,3.7,5.2c1,1.1,2.1,1.9,3.6,2c1.6,0.1,3-0.1,4.1-1.3c0.9-0.9,1.4-2,1.7-3.2
				C77.7,58,77.7,56.2,77.7,55.2z M43.4,39.6c0-0.1,0-0.1-0.1-0.1c-1.5-2.2-3.1-4.3-5-6.2c-1.2-1.2-2.6-2.3-4.2-2.9
				c-2.1-0.8-4.3-0.8-6.3,0.3c-1.5,0.8-2.6,1.9-3.7,3.2c-2,2.5-3.4,5.4-4.4,8.4c-1.4,4-2.1,8.1-2.1,12.4c0,1.9,0.1,3.9,0.8,5.7
				c0.4,1.1,1,2.2,2.1,2.9c1.6,1.1,3.3,1,5.1,0.5c1.4-0.4,2.4-1.4,3.3-2.4c1.6-1.7,2.9-3.6,4.2-5.6c2.7-4.2,5.4-8.4,8.1-12.6
				C41.9,41.9,42.7,40.7,43.4,39.6z"/>
		</g>
	</g>
</g>
</svg>
